<?xml version="1.0" encoding="UTF-8"?>
<svg width="752pt" height="752pt" version="1.1" viewBox="0 0 752 752" xmlns="http://www.w3.org/2000/svg">
 <defs>
  <clipPath id="a">
   <path d="m139.21 139.21h473.58v473.58h-473.58z"/>
  </clipPath>
 </defs>
 <g clip-path="url(#a)">
  <path d="m376 139.21c130.77 0 236.79 106.01 236.79 236.79 0 130.78-106.01 236.79-236.79 236.79-130.78 0-236.79-106.01-236.79-236.79 0-130.77 106.01-236.79 236.79-236.79zm-24.676 290.62-20.348-132.74-3.6523-89.148h97.328l-3.0234 86.207-19.637 135.68h-50.672zm24.668 15.328c28.363 0 51.359 22.141 51.359 49.449 0 27.32-22.996 49.449-51.359 49.449-28.371 0-51.359-22.129-51.359-49.449 0-27.309 22.988-49.449 51.359-49.449z" fill-rule="evenodd"/>
 </g>
</svg>
