<?xml version="1.0" encoding="UTF-8"?>
<svg width="752pt" height="752pt" version="1.1" viewBox="0 0 752 752" xmlns="http://www.w3.org/2000/svg">
 <path d="m524 162.89h-272.31c-12.809 0-25.273 4.1523-35.52 11.84-0.84766 0.45703-1.6094 1.0586-2.25 1.7734-13.504 10.734-21.391 27.031-21.43 44.281v322.04c0.27734 12.375 5.3906 24.148 14.242 32.801 8.8516 8.6523 20.738 13.496 33.117 13.492h307.83c4.8516-0.015625 9.2031-2.9922 10.977-7.5078 1.7734-4.5156 0.61328-9.6602-2.9258-12.977-7.3359-6.1562-11.934-14.969-12.789-24.508 0.50781-10.582 5.2422-20.52 13.145-27.586 2.0625-2.2852 3.2773-5.2109 3.4336-8.2852v-310.55c-0.1875-9.2969-4.0117-18.148-10.652-24.66-6.6406-6.5078-15.57-10.152-24.867-10.148zm-47.359 91.047v19.18c-0.51172 5.7812-3.2891 11.129-7.7227 14.875-4.4336 3.7461-10.168 5.5938-15.957 5.1328h-153.91c-5.7852 0.46094-11.52-1.3867-15.957-5.1328-4.4336-3.7461-7.207-9.0938-7.7188-14.875v-19.18c0.51172-5.7852 3.2852-11.133 7.7188-14.879 4.4375-3.7461 10.172-5.5898 15.957-5.1328h153.91c5.7891-0.45703 11.523 1.3867 15.957 5.1328 4.4336 3.7461 7.2109 9.0938 7.7227 14.879zm-236.79 311.5c-6.2969 0.45703-12.5-1.7305-17.125-6.0273-4.6211-4.3008-7.2461-10.332-7.2461-16.645s2.625-12.344 7.2461-16.645c4.625-4.3008 10.828-6.4844 17.125-6.0273h284.98c-3.7852 7.6484-5.6914 16.09-5.5664 24.625 0.1875 7.1797 1.8789 14.238 4.9727 20.719z"/>
</svg>
