<?xml version="1.0" encoding="UTF-8"?>
<svg width="752pt" height="752pt" version="1.1" viewBox="0 0 752 752" xmlns="http://www.w3.org/2000/svg">
 <path d="m169.04 225.54c-3.7852-3.793-3.7852-9.9336 0-13.727 3.8398-3.668 9.8867-3.668 13.727 0l12.355 12.355-13.727 13.727zm39.422 39.422c18.812 19.133 44.383 30.121 71.211 30.594 22.535 0.23438 44.789 5.0625 65.398 14.188 0.37109-0.53125 0.77344-1.0352 1.2031-1.5156l13.191-13.191c-24.852-12.141-52.094-18.594-79.75-18.898-21.695-0.4375-42.355-9.3789-57.523-24.902l-18.836-18.832-13.723 13.727zm144.8 55.227v-0.003906c0.19922 1.4062 1.0586 2.6328 2.3125 3.3008 30.547 16.73 55.672 41.852 72.41 72.398 0.66406 1.2539 1.8867 2.1172 3.293 2.3203 1.3672 0.19922 2.75-0.26562 3.7227-1.25l21.051-21.051h-0.003906c0.25781-0.24219 0.32812-0.62109 0.17969-0.94141-19.031-33.176-46.547-60.691-79.723-79.723-0.10156-0.058594-0.21484-0.085937-0.33203-0.082031-0.23047 0-0.44922 0.09375-0.61328 0.25781l-21.051 21.051v-0.003907c-0.99219 0.96875-1.457 2.3555-1.2461 3.7227zm-180.47 204.99 11.801-11.801 2.4844-253.29-5.668-5.7461-5.8242-5.8242zm261.36-199.16 73.766-73.766-7.9961-8.4648-74 74c1.3203 1.2422 2.6406 2.4844 3.9609 3.8047 1.4727 1.4727 2.8711 2.9492 4.2695 4.4258zm-196.91 180.45 6.0547 2.1758 2.1758 6.0547 147.53-147.53c-1.3984-1.4766-2.7969-2.9492-4.2695-4.4258-1.3203-1.3203-2.6406-2.5625-3.9609-3.8047zm290.05 49.879-13.727 13.723 12.355 12.352c3.8398 3.668 9.8867 3.668 13.727 0 1.8203-1.8203 2.8438-4.2891 2.8438-6.8633s-1.0234-5.043-2.8438-6.8594zm-289.47-28.195-3.6445-10.375-10.363-3.6445c-5.2148-1.8086-10.828-2.1211-16.211-0.89453-5.3789 1.2266-10.309 3.9375-14.227 7.8242l-35.66 35.66 25.125 8.8242v0.003907c1.6641 0.58984 2.9766 1.8984 3.5625 3.5625l8.8281 25.129 35.664-35.66c3.8906-3.9141 6.6016-8.8438 7.8242-14.223 1.2266-5.3789 0.91406-10.996-0.89844-16.207zm282.1-337.96-7.625 49.582 49.578-7.6289 32.426-74.371zm-281.28 377.07-11.801 11.801 276.11-3.1836-11.57-11.492zm261.59-37.988v-0.003906c-15.52-15.168-24.461-35.824-24.898-57.52-0.30078-27.66-6.7578-54.906-18.902-79.754l-13.191 13.191c-0.47656 0.44141-0.97656 0.85156-1.5 1.2344 9.1172 20.602 13.938 42.844 14.18 65.371 0.46484 26.828 11.449 52.398 30.586 71.203l18.832 18.836 13.727-13.723z"/>
</svg>
