<?xml version="1.0" encoding="UTF-8"?>
<svg width="752pt" height="752pt" version="1.1" viewBox="0 0 752 752" xmlns="http://www.w3.org/2000/svg">
 <g>
  <path d="m283.76 272.57c0.003906-17.977-1.7422-35.91-5.207-53.547-3.4688-17.641-8.6406-34.906-15.445-51.551-1.6953-4.1719-4.9883-7.4922-9.1484-9.2266-4.1562-1.7305-8.832-1.7305-12.992 0-4.1562 1.7344-7.4492 5.0547-9.1445 9.2266-13.641 33.359-20.656 69.059-20.652 105.1v55.969h72.59z"/>
  <path d="m283.76 343.06h-72.594c-9.0312 32.984-13.609 67.027-13.609 101.23v96.316h4.2266c4.8555-0.0625 8.9414 3.6328 9.3633 8.4727 0.16797 2.5039-0.71094 4.9688-2.4258 6.8008-1.7148 1.8359-4.1172 2.875-6.6289 2.875h-4.5352v17.801c0 4.9062 1.9492 9.6094 5.418 13.078s8.1719 5.418 13.078 5.418h62.824c4.9062 0 9.6094-1.9492 13.078-5.418s5.418-8.1719 5.418-13.078v-17.801h-4.2266c-4.8594 0.0625-8.9414-3.6289-9.3672-8.4688-0.16406-2.5078 0.71484-4.9688 2.4297-6.8047 1.7148-1.832 4.1133-2.875 6.625-2.875h4.5352l0.003906-96.316c0-34.199-4.5781-68.242-13.613-101.23z"/>
  <path d="m412.3 272.57c0.003906-17.977-1.7422-35.91-5.207-53.547-3.4688-17.641-8.6406-34.906-15.445-51.551-1.6953-4.1719-4.9883-7.4922-9.1484-9.2266-4.1562-1.7305-8.832-1.7305-12.992 0-4.1562 1.7344-7.4492 5.0547-9.1445 9.2266-13.641 33.359-20.656 69.059-20.656 105.1v55.969h72.594z"/>
  <path d="m412.3 343.06h-72.594c-9.0312 32.984-13.609 67.027-13.609 101.23v96.316h4.2266c4.8555-0.0625 8.9414 3.6328 9.3633 8.4727 0.16797 2.5039-0.71094 4.9688-2.4258 6.8008-1.7148 1.8359-4.1172 2.875-6.6289 2.875h-4.5352v17.801c0 4.9062 1.9492 9.6094 5.418 13.078s8.1719 5.418 13.078 5.418h62.824c4.9062 0 9.6094-1.9492 13.078-5.418s5.418-8.1719 5.418-13.078v-17.801h-4.2266c-4.8594 0.0625-8.9414-3.6289-9.3672-8.4688-0.16406-2.5078 0.71484-4.9688 2.4297-6.8047 1.7148-1.832 4.1133-2.875 6.625-2.875h4.5352l0.003906-96.316c0-34.199-4.5781-68.242-13.613-101.23z"/>
  <path d="m540.83 272.57c0.003907-36.039-7.0117-71.738-20.652-105.1-1.6953-4.1719-4.9883-7.4922-9.1484-9.2266-4.1562-1.7305-8.832-1.7305-12.992 0-4.1562 1.7344-7.4492 5.0547-9.1445 9.2266-13.641 33.359-20.656 69.059-20.656 105.1v55.969h72.594z"/>
  <path d="m550.22 540.61h4.2266v-96.316c0-34.199-4.5781-68.242-13.613-101.23h-72.594c-9.0312 32.984-13.609 67.027-13.609 101.23v96.316h4.2266c4.8555-0.0625 8.9414 3.6328 9.3633 8.4727 0.16797 2.5039-0.71094 4.9688-2.4258 6.8008-1.7148 1.8359-4.1172 2.875-6.6289 2.875h-4.5352v17.801c0 4.9062 1.9492 9.6094 5.418 13.078s8.1719 5.418 13.078 5.418h62.824c4.9062 0 9.6094-1.9492 13.078-5.418s5.418-8.1719 5.418-13.078v-17.801h-4.5391c-2.5117 0-4.9102-1.0391-6.625-2.875-1.7148-1.832-2.5938-4.2969-2.4297-6.8008 0.42578-4.8398 4.5078-8.5352 9.3672-8.4727z"/>
 </g>
</svg>
