<?xml version="1.0" encoding="UTF-8"?>
<svg width="752pt" height="752pt" version="1.1" viewBox="0 0 752 752" xmlns="http://www.w3.org/2000/svg">
 <path d="m500.32 390.8c21.461-0.73828 39.219 14.801 39.957 35.52 0.73828 20.719-15.539 38.477-36.258 39.219-21.461 0.73828-39.219-14.801-39.957-35.52-0.74219-20.719 15.539-38.48 36.258-39.219zm2.9609 59.199c12.578-0.73828 22.199-11.098 21.461-23.68-0.73828-12.578-11.098-21.461-23.68-21.461-12.578 0-22.199 11.098-21.461 23.68 0.73828 12.578 11.098 22.199 23.68 21.461zm-16.281-21.461c0.73828 8.1406 7.3984 14.801 15.539 14.059 8.1406-0.73828 14.801-7.3984 14.059-15.539-0.73828-8.1406-7.3984-14.801-15.539-14.059-8.1367 0.73828-14.059 7.3984-14.059 15.539zm-229.39-30.34c21.461-0.73828 39.219 14.801 39.957 35.52s-15.539 38.477-36.258 39.219c-21.461 0.73828-39.219-14.801-39.957-35.52-1.4805-20.719 14.801-37.738 36.258-39.219zm2.9609 59.938c12.578-0.73828 22.199-11.098 21.461-23.68-0.73828-12.578-11.098-21.461-23.68-21.461-12.578 0-22.199 11.098-21.461 23.68 0.74219 12.582 11.102 22.203 23.68 21.461zm-16.281-21.457c0.73828 8.1406 7.3984 14.801 15.539 14.059 8.1406-0.73828 14.801-7.3984 14.059-15.539-0.73828-8.1406-7.3984-14.801-15.539-14.059-8.1367 0.73828-14.797 7.3984-14.059 15.539zm11.102-91.016c5.918 1.4805 15.539 2.9609 31.078 3.6992 10.359 0.73828 23.68 0 39.219 0 8.1406 0 5.918-7.3984 5.918-7.3984l-9.6211-44.398h-4.4414c-24.418 1.4805-40.699 19.98-48.098 28.859-1.4805 1.4805-2.9609 2.9609-3.6992 3.6992-1.4805 0.73828-5.1797 4.4414-9.6211 8.1406-2.2148 0.73828-8.1328 5.1758-0.73438 7.3984zm-86.578 14.797s4.4414 33.297 8.1406 45.879c3.6992 10.359 1.4805 11.098 25.898 17.02 11.098 2.2188 12.578-3.6992 13.32-6.6602 6.6602-15.539 22.199-26.641 40.699-27.379h3.6992c2.9609-12.578 1.4805-22.938-0.73828-28.859-2.2188-5.918-8.1406-8.1406-9.6211-8.8789-7.3984-2.9609-8.1406-5.1797-8.8789-7.3984-0.73828-3.6992 0.73828-6.6602 5.918-10.359 6.6602-4.4414 11.098-8.8789 12.578-9.6211l2.9609-2.9609c8.1406-8.8789 25.898-29.598 54.02-31.078h4.4414c0.73828 0 7.3984-0.73828 8.8789-0.73828 18.5-1.4805 42.18-2.9609 59.199 6.6602 17.02 9.6211 28.117 20.719 34.777 27.379 1.4805 1.4805 2.2188 2.2188 2.9609 2.9609 0 0 5.1797 5.1797 6.6602 11.098 0.73828 1.4805-0.73828 8.1406 3.6992 14.059 8.1406 10.359 15.539 32.559 2.2188 71.777-0.73828 1.4805-2.2188 2.2188-3.6992 2.2188h-1.4805c-2.2188-0.73828-2.9609-2.9609-2.2188-4.4414 13.32-39.957 3.6992-59.199-2.9609-67.336-2.2188-2.9609-5.1797-4.4414-11.84-3.6992-20.719 2.2188-44.398 4.4414-68.078 5.918-3.6992 0-3.6992 3.6992-2.2188 5.918 5.918 11.098 11.84 31.078 2.2188 63.637-0.73828 1.4805-2.2188 2.9609-3.6992 2.9609h-1.4805c-2.2188-0.73828-2.9609-2.9609-2.2188-4.4414 10.359-36.258 0.73828-54.758-4.4414-62.156-1.4805-2.2188-5.1797-4.4414-11.84-4.4414h-40.699c-5.1797 0-9.6211 0-13.32-0.73828-6.6602-0.73828-4.4414 3.6992-3.6992 6.6602 1.4805 7.3984 2.2188 17.02 0 28.117 15.539 2.9609 28.859 14.059 34.039 28.117 2.2188 4.4414 5.1797 14.059 19.238 14.801 24.418 0.73828 49.578 0 71.039 0 14.801 0 34.039 0 51.797-1.4805 11.098-0.73828 12.578-8.1406 13.32-11.098 2.9609-19.98 20.719-36.258 42.18-37 17.758-0.73828 33.297 8.8789 41.438 22.938 1.4805 2.9609 3.6992 8.8789 14.059 8.1406 7.3984-0.73828 13.32 0 20.719-3.6992 11.098-5.918 6.6602-19.238 0.73828-19.98-5.1758-1.4727-2.957-8.1328-0.73828-23.672 2.2188-14.801-1.4805-20.719-10.359-22.938-8.8789-2.9609-55.496-6.6602-74.738-7.3984-19.238-0.73828-36.258-2.2188-43.66-10.359-8.1406-7.3984-18.5-25.898-44.398-39.957-25.16-14.801-66.598-7.3984-90.277-6.6602-40.699 0.73828-65.117 37.738-71.777 44.398-6.6602 6.6602-46.617 16.281-59.938 20.719-13.316 3.6953-11.836 14.055-11.836 14.055zm161.32-63.637h-1.4805l9.6211 45.879s1.4805 6.6602 8.1406 5.918h2.9609c24.418-1.4805 48.84-3.6992 69.559-5.918 9.6211-0.73828 5.1797-8.8789 2.9609-11.098l-2.9609-2.9609c-6.6602-6.6602-17.02-17.02-33.297-25.898-11.84-6.6602-29.598-6.6602-44.398-5.918-3.707-0.003906-7.4062-0.003906-11.105-0.003906z"/>
</svg>
