<?xml version="1.0" encoding="UTF-8"?>
<svg width="752pt" height="752pt" version="1.1" viewBox="0 0 752 752" xmlns="http://www.w3.org/2000/svg">
 <g>
  <path d="m594.32 326.28h-11.84c-3.3164 0-6.6289 2.8398-6.6289 6.6289v18.469h-24.625v-18.469c0-3.3164-2.8398-6.6289-6.6289-6.6289h-11.84c-3.3164 0-6.6289 2.8398-6.6289 6.6289v18.469h-25.102v-18.469c0-3.3164-2.8398-6.6289-6.6289-6.6289h-11.84c-3.3164 0-6.6289 2.8398-6.6289 6.6289v70.562h-56.359v-85.246h-87.137v85.246h-57.305v-71.035c0-3.7891-2.8398-6.6289-6.6289-6.6289h-11.84c-3.3164 0-6.6289 2.8398-6.6289 6.6289v18.469h-25.102v-18.469c0-3.7891-2.8398-6.6289-6.6289-6.6289h-11.84c-3.7891 0-6.6289 2.8398-6.6289 6.6289v18.469h-23.684v-18.469c0-3.7891-2.8398-6.6289-6.6289-6.6289l-11.84-0.003907c-3.3164 0-6.6289 2.8398-6.6289 6.6289v250.05c0 3.7891 2.8398 6.6289 6.6289 6.6289h168.59c3.7891 0 6.6289-2.8398 6.6289-6.6289v-56.828c0-22.73 17.051-43.098 40.254-44.516 13.262-0.94531 25.102 4.2617 34.098 12.785 8.0508 8.0508 12.785 18.469 12.785 30.781v58.25c0 3.7891 2.8398 6.6289 6.6289 6.6289h168.59c3.7891 0 6.6289-2.8398 6.6289-6.6289l0.007813-250.52c-0.94531-3.3164-3.7891-6.1562-7.5781-6.1562zm-359.45 150.6c0 3.3164-2.8398 5.6836-5.6836 5.6836h-31.73c-3.3164 0-5.6836-2.8398-5.6836-5.6836v-42.148c0-11.84 9.9453-21.785 21.785-21.785 6.1562 0 11.367 2.3672 15.156 6.1562 3.7891 3.7891 6.1562 9.4727 6.1562 15.156zm325.35 0c0 3.3164-2.8398 5.6836-5.6836 5.6836h-31.727c-3.3164 0-5.6836-2.8398-5.6836-5.6836v-42.148c0-11.84 9.9453-21.785 21.785-21.785 6.1562 0 11.367 2.3672 15.156 6.1562 3.7891 3.7891 6.1562 9.4727 6.1562 15.156z"/>
  <path d="m331.48 304.96h89.035c5.6836 0 8.9961-6.1562 6.1562-10.891l-44.52-74.355c-0.47266-0.94531-1.4219-1.8945-2.3672-2.3672v-19.418h31.258c3.7891 0 6.6289-2.8398 6.6289-6.6289v-18.941c0-3.7891-2.8398-6.6289-6.6289-6.6289h-31.258v-1.4219c0-0.94531-0.94531-1.4219-1.4219-1.4219h-4.2617c-0.94531 0-1.4219 0.94531-1.4219 1.4219v53.043c-0.94531 0.47266-1.8945 1.4219-2.3672 2.3672l-44.516 74.352c-3.3125 4.7344 0 10.891 5.6836 10.891z"/>
 </g>
</svg>
