<?xml version="1.0" encoding="UTF-8"?>
<svg width="752pt" height="752pt" version="1.1" viewBox="0 0 752 752" xmlns="http://www.w3.org/2000/svg">
 <path d="m597.77 485.22-22.199-88.797c-0.73828-2.8867-3.0352-5.0312-5.9922-5.5508l-29.227-4.8086 3.1836 7.9922 3.2578 8.0664 6.4375 15.91c1.2578 3.9219-0.8125 8.0664-4.6602 9.3984-0.82031 0.21875-1.6367 0.36719-2.375 0.36719-3.1094 0-5.9922-1.9258-7.0312-5.0312l-9.4727-23.531-3.2578-7.9922-9.0977-22.645c-0.96094-3.0352 0.074218-6.2891 2.5156-8.1406l-18.574-46.395c-0.73828-1.8516-2.1445-3.2578-3.9961-4.0703l-36.184-15.465 3.4766 9.4727 3.4766 9.5469 11.395 31.375c0.8125 4.0703-1.7773 7.918-5.7734 8.7305-0.51172 0.070312-1.0312 0.14453-1.4766 0.14453-3.4766 0-6.5859-2.4414-7.25-5.918l-15.391-42.254-3.4023-9.5469-10.805-29.598c-0.22266-0.96094-0.22266-1.9258 0-2.8125l-0.96094-2c-1.2617-2.5117-3.7773-4.0664-6.5859-4.0664h-51.797c-2.2188 0-4.3672 1.0352-5.7734 2.8125l-28.117 35.074-79.031 21.609c-2.0703 0.51953-3.7734 1.9258-4.6602 3.7734l-27.602 55.125h-25.012c-2.9609 0-5.625 1.7773-6.8086 4.5156l-44.398 103.6c-0.96094 2.293-0.74219 4.8828 0.66406 6.957 1.3359 2.0664 3.6289 3.3281 6.1445 3.3281h429.18c2.293 0 4.4414-1.0352 5.8438-2.8125 1.4062-1.8516 1.8516-4.1445 1.332-6.3633zm-309.23-5.625 5.5508-33.445 49.281-49.281 40.402-20.129 31.895 12.727 34.629 48.543 5.9961 41.586z"/>
</svg>
