<?xml version="1.0" encoding="UTF-8"?>
<svg width="752pt" height="752pt" version="1.1" viewBox="0 0 752 752" xmlns="http://www.w3.org/2000/svg">
 <path d="m512.11 346.4v-11.84h32.051l13.605-13.617c2.3164 1.1055 4.8711 1.7773 7.6016 1.7773 9.7773 0 17.734-7.9688 17.734-17.758 0-9.7891-7.957-17.758-17.734-17.758-9.7773 0-17.734 7.9688-17.734 17.758 0 2.3281 0.47656 4.5391 1.293 6.5781 0.14062 0.35156 0.31641 0.67969 0.48047 1.0234l-10.148 10.156h-27.145v-11.84h-47.312v-23.68h-23.68v-47.359h-11.84v-27.145l10.156-10.148c0.33984 0.16406 0.66797 0.33984 1.0234 0.48047 2.043 0.82031 4.2539 1.2969 6.582 1.2969 9.793 0 17.758-7.9531 17.758-17.734s-7.9648-17.738-17.758-17.738c-9.793 0-17.758 7.9531-17.758 17.734 0 2.7305 0.67188 5.2852 1.7773 7.5977l-13.617 13.605v32.055h-11.84v47.359h-11.84v-47.359h-11.84v-36.609c6.875-2.4492 11.84-8.9492 11.84-16.648 0-9.7812-7.9648-17.734-17.758-17.734-9.793 0-17.758 7.9531-17.758 17.734 0 7.6992 4.9648 14.199 11.84 16.648l-0.003907 36.609h-11.84v47.359h-11.84v-47.359h-11.84v-32.055l-13.617-13.605c1.1055-2.3086 1.7773-4.8672 1.7773-7.5938 0-9.7812-7.9648-17.734-17.758-17.734-9.793 0-17.758 7.9531-17.758 17.734-0.003906 9.7812 7.9648 17.734 17.758 17.734 2.3281 0 4.5391-0.47656 6.5781-1.293 0.35156-0.14062 0.67969-0.31641 1.0234-0.48047l10.156 10.148v27.145h-11.84v47.359h-23.68v23.68l-47.406-0.003907v11.84h-27.145l-10.148-10.16c0.16406-0.33984 0.33984-0.66797 0.48047-1.0234 0.81641-2.0352 1.2969-4.2461 1.2969-6.5742 0-9.7891-7.9531-17.758-17.734-17.758-9.7812-0.003906-17.738 7.9648-17.738 17.758 0 9.7891 7.957 17.758 17.734 17.758 2.7305 0 5.2852-0.67188 7.5938-1.7773l13.609 13.617h32.051v11.84h47.406v11.84h-47.406v11.84h-36.609c-2.4492-6.875-8.9492-11.84-16.645-11.84-9.7773 0-17.734 7.9688-17.734 17.758s7.957 17.758 17.734 17.758c7.6953 0 14.195-4.9648 16.645-11.84h36.609v11.84l47.406 0.003907v11.84h-47.406v11.84h-32.051l-13.605 13.617c-2.3086-1.1094-4.8672-1.7812-7.5938-1.7812-9.7812 0-17.738 7.9688-17.738 17.762 0 9.7891 7.957 17.758 17.734 17.758 9.7773 0 17.734-7.9688 17.734-17.758 0-2.3281-0.47656-4.5391-1.293-6.5781-0.14062-0.35156-0.31641-0.67969-0.48047-1.0234l10.148-10.16h27.145v11.84h47.406v23.68h23.68v47.359h11.84v27.145l-10.156 10.148c-0.33984-0.16406-0.66797-0.33984-1.0234-0.48047-2.0391-0.81641-4.25-1.293-6.5781-1.293-9.793 0-17.758 7.9531-17.758 17.734s7.9648 17.734 17.758 17.734c9.793 0 17.758-7.9531 17.758-17.734 0-2.7305-0.67188-5.2852-1.7773-7.5977l13.617-13.602v-32.055h11.84v-47.359h11.84v47.359h11.84v36.609c-6.875 2.4492-11.84 8.9492-11.84 16.648 0 9.7812 7.9648 17.734 17.758 17.734s17.758-7.9531 17.758-17.734c0-7.6992-4.9648-14.199-11.84-16.648l0.003906-36.609h11.84v-47.359h11.84v47.359h11.84v32.055l13.617 13.605c-1.1094 2.3086-1.7812 4.8672-1.7812 7.5938 0 9.7812 7.9648 17.734 17.758 17.734 9.793 0 17.758-7.9531 17.758-17.734 0.003906-9.7812-7.9609-17.734-17.754-17.734-2.3281 0-4.5391 0.47656-6.5781 1.293-0.35156 0.14062-0.67969 0.31641-1.0234 0.48047l-10.16-10.148v-27.145h11.84v-47.359h23.68v-23.68h47.309v-11.84h27.145l10.148 10.156c-0.16406 0.33984-0.33984 0.67188-0.48047 1.0234-0.81641 2.043-1.293 4.2539-1.293 6.582 0 9.7891 7.957 17.758 17.734 17.758s17.734-7.9688 17.734-17.758c0-9.7891-7.957-17.758-17.734-17.758-2.7305 0-5.2852 0.67188-7.5977 1.7773l-13.602-13.617h-32.051v-11.84h-47.312v-11.84h47.309v-11.84h36.609c2.4492 6.875 8.9492 11.84 16.645 11.84 9.7773 0 17.734-7.9688 17.734-17.758 0-9.7891-7.957-17.758-17.734-17.758-7.6953 0-14.199 4.9648-16.645 11.84h-36.609v-11.84l-47.309-0.003906v-11.84z"/>
</svg>
