<?xml version="1.0" encoding="UTF-8"?>
<svg width="752pt" height="752pt" version="1.1" viewBox="0 0 752 752" xmlns="http://www.w3.org/2000/svg">
 <path d="m423.36 212.87c-4.6367-8.4961-11.488-15.578-19.824-20.496-8.3398-4.9141-17.855-7.4805-27.535-7.4258-9.6797-0.054688-19.191 2.5117-27.531 7.4258-8.3359 4.918-15.188 12-19.824 20.496l-151.94 273.63c-9.3398 16.793-9.0977 37.273 0.63672 53.84s27.508 26.75 46.723 26.766h303.88c19.211-0.027344 36.973-10.211 46.703-26.773s9.9805-37.039 0.65625-53.832zm-62.156 123.66c0-5.2852 2.8203-10.172 7.3984-12.816 4.5781-2.6445 10.219-2.6445 14.801 0 4.5781 2.6445 7.3984 7.5312 7.3984 12.816v78.93c0 5.2891-2.8203 10.176-7.3984 12.816-4.582 2.6445-10.223 2.6445-14.801 0-4.5781-2.6406-7.3984-7.5273-7.3984-12.816zm14.797 157.86c-5.2305 0-10.25-2.082-13.953-5.7812-3.6992-3.6992-5.7773-8.7188-5.7773-13.953 0-5.2344 2.0781-10.254 5.7773-13.953 3.7031-3.6992 8.7227-5.7812 13.953-5.7812 5.2344 0 10.254 2.082 13.953 5.7812 3.7031 3.6992 5.7812 8.7188 5.7812 13.953 0 5.2344-2.0781 10.254-5.7812 13.953-3.6992 3.6992-8.7188 5.7812-13.953 5.7812z"/>
</svg>
