<?xml version="1.0" encoding="UTF-8"?>
<svg width="752pt" height="752pt" version="1.1" viewBox="0 0 752 752" xmlns="http://www.w3.org/2000/svg">
 <path d="m375.86 186.57c-86.418 0-156.13 69.035-156.13 154.65 0 51.16 25.121 96.605 63.934 124.76l-0.003906 0.003907c2.4414 1.8008 3.8711 4.6641 3.8477 7.6953v91.758h38.035v-28.711c-0.039062-2.5117 0.92188-4.9375 2.668-6.7422 1.75-1.8047 4.1445-2.8398 6.6562-2.8789 2.5625-0.039062 5.0352 0.96094 6.8477 2.7734s2.8125 4.2852 2.7734 6.8477v28.711h63.637v-28.711c-0.039063-2.5391 0.94141-4.9844 2.7188-6.793 1.7812-1.8086 4.2148-2.8281 6.75-2.8281 2.5391 0 4.9727 1.0195 6.75 2.8281 1.7812 1.8086 2.7617 4.2539 2.7227 6.793v28.711h37.293v-91.758h0.003907c0.007812-3.0586 1.4961-5.9258 3.9961-7.6953 38.809-28.152 63.934-73.602 63.934-124.76 0-85.617-69.797-154.65-156.43-154.65zm-77.992 179.81h-0.003906c0.29688-0.011718 0.59375-0.011718 0.89062 0 2.5547-0.019531 5.0078 0.99609 6.8047 2.8125l19.238 19.09 19.238-19.09h0.003906c1.7227-1.7422 4.0586-2.7539 6.5117-2.8125 3.8984-0.089844 7.457 2.2188 8.9609 5.8164 1.5039 3.5977 0.65234 7.7539-2.1523 10.465l-19.09 18.945 19.09 18.941c1.8398 1.7539 2.9023 4.1758 2.9375 6.7188 0.039062 2.543-0.94531 4.9961-2.7344 6.8047-1.7891 1.8086-4.2305 2.8203-6.7734 2.8086-2.543-0.007812-4.9766-1.043-6.75-2.8633l-19.238-19.09-19.238 19.09h-0.003906c-1.7734 1.8203-4.207 2.8555-6.75 2.8633-2.543 0.011719-4.9844-1-6.7734-2.8086-1.7891-1.8086-2.7734-4.2617-2.7344-6.8047s1.0977-4.9648 2.9414-6.7188l19.09-18.941-19.09-18.945c-2.6797-2.5586-3.625-6.4414-2.4141-9.9453 1.2109-3.5 4.3477-5.9766 8.0352-6.3359zm101.82 0h-0.003906c0.29687-0.011718 0.59375-0.011718 0.89062 0 2.5547-0.019531 5.0078 0.99609 6.8047 2.8125l19.238 19.09 19.238-19.09h0.003907c1.7227-1.7422 4.0586-2.7539 6.5117-2.8125 3.8984-0.089844 7.457 2.2188 8.9609 5.8164 1.5039 3.5977 0.64844 7.7539-2.1523 10.465l-19.09 18.945 19.09 18.941c1.8398 1.7539 2.8984 4.1758 2.9375 6.7188 0.039063 2.543-0.94531 4.9961-2.7344 6.8047-1.7891 1.8086-4.2305 2.8203-6.7734 2.8086-2.543-0.007812-4.9766-1.043-6.75-2.8633l-19.238-19.09-19.238 19.09h-0.003906c-1.7734 1.8203-4.207 2.8555-6.75 2.8633-2.543 0.011719-4.9844-1-6.7734-2.8086-1.7891-1.8086-2.7734-4.2617-2.7344-6.8047 0.039062-2.543 1.0977-4.9648 2.9414-6.7188l19.09-18.941-19.09-18.945c-2.6797-2.5586-3.625-6.4414-2.4141-9.9453 1.2109-3.5 4.3477-5.9766 8.0352-6.3359z" fill-rule="evenodd"/>
</svg>
