<?xml version="1.0" encoding="UTF-8"?>
<svg width="752pt" height="752pt" version="1.1" viewBox="0 0 752 752" xmlns="http://www.w3.org/2000/svg">
 <path d="m346.09 355.04c-65.418-65.977-11.184-172.77-11.184-172.77-181.16 57.59-214.14 276.77-59.266 370.7-48.086-64.859-22.926-114.62-22.926-114.62 20.688 50.879 62.062 65.977 62.062 65.977-50.32-95.609-2.2383-121.33-2.2383-121.33 210.79 162.71 17.332 191.78 17.332 191.78 110.15 49.762 148.73-67.094 93.375-153.76 96.73-117.42 49.762 76.602 49.762 76.602 40.258-18.453 54.234-60.387 54.234-60.387 18.453 46.406-15.098 102.88-15.098 102.88 138.66-103.44 76.043-344.98-73.805-357.28 52 157.68-33.547 183.39-33.547 183.39-15.656-43.055 25.16-74.363 25.16-74.363 6.7109-26.277-10.062-30.754-10.062-30.754-8.3867 63.742-54.793 46.406-22.926 5.0312 38.02-39.141-7.8281-59.828-22.363-17.891l-26.84-29.633 6.1523 55.914c-22.363-6.1523-19.012 34.105-19.012 34.105 13.977-26.277 16.773-4.4727 16.773-4.4727l-5.5898 50.879z" fill-rule="evenodd"/>
</svg>
