<?xml version="1.0" encoding="UTF-8"?>
<svg width="752pt" height="752pt" version="1.1" viewBox="0 0 752 752" xmlns="http://www.w3.org/2000/svg">
 <defs>
  <clipPath id="a">
   <path d="m139.21 180h473.58v392h-473.58z"/>
  </clipPath>
 </defs>
 <g clip-path="url(#a)">
  <path d="m334.5 259.08 27.578 27.578v-98.73c0-3.7695 3.1445-6.9336 7.0273-6.9336h13.801c3.9414 0 7.0273 3.1055 7.0273 6.9336v98.73l27.02-27.02c2.7227-2.7227 7.1445-2.6953 9.8906 0.050781l9.7539 9.7578c2.7891 2.7891 2.7578 7.1836 0.027344 9.9141l-50.77 50.773c-5.4414 5.4375-14.262 5.4375-19.699 0l-51.395-51.395c-2.6914-2.6914-2.6719-7.125 0.074219-9.8711l9.7578-9.7539c2.7852-2.7891 7.1797-2.7617 9.9062-0.035157zm46.395 117.8 222.86 83.574c12.051 4.5195 12.051 21.566 0 26.086l-222.86 83.57c-3.1523 1.1836-6.625 1.1836-9.7812 0l-222.86-83.57c-12.051-4.5195-12.051-21.566 0-26.086l222.86-83.574c3.1562-1.1797 6.6289-1.1797 9.7812 0z"/>
 </g>
</svg>
