<?xml version="1.0" encoding="UTF-8"?>
<svg width="752pt" height="752pt" version="1.1" viewBox="0 0 752 752" xmlns="http://www.w3.org/2000/svg">
 <path d="m436.14 600.95c99.926-88.559 13.734-202.69-12.785-214.53 3.3164 13.734 1.8945 37.414-11.367 50.199-6.6289-34.098-33.152-78.141-71.512-92.348 6.1562 48.777-22.73 83.352-34.57 100.87-10.418 16.102-68.668 98.031-9.4727 155.34-141.6-44.043-106.55-186.59-64.879-249.11 43.098-64.879 93.77-118.87 82.402-200.32 68.668 24.152 116.03 97.086 127.87 153.44 23.207-21.785 26.52-61.094 20.363-83.824 48.781 20.363 200.33 291.73-26.047 380.29z"/>
</svg>
