<?xml version="1.0" encoding="UTF-8"?>
<svg width="752pt" height="752pt" version="1.1" viewBox="0 0 752 752" xmlns="http://www.w3.org/2000/svg">
 <path d="m595.07 237.18c-3.5234 4.3633-6.7109 9.7344-9.7344 16.613 4.0273 1.0078 7.7188-0.33594 13.258-3.5234-2.0117 7.0469-6.375 13.594-12.082 20.641 1.1758 6.543 0.67188 17.285-1.1758 21.312-2.5156 21.98 0.67187 38.258-5.707 46.984-4.8672 8.0547-15.605 7.3828-19.801 5.3711-4.0273-2.5156-5.707-9.0625-5.0352-19.633-6.207-8.5586-11.578-17.953-15.102-30.707-8.5586-4.6992-27.016 18.121-27.855 28.527 1.0078 28.023-1.1758 49.168-15.773 74.168l16.613 9.5664c18.793 5.2031 34.902 11.242 32.387 29.535-3.1875 14.598-4.0273 35.742-9.3984 44.469-2.6836 4.0273-9.2305 9.3984-13.93 14.262-6.7109 10.906-16.277 18.625-20.473 16.109-4.1953-2.0117-3.0195-13.258-1.0078-17.285 5.2031-8.3906 12.082-7.8867 18.121-11.914 10.066-20.977 17.621-37.086 1.0078-49.168-28.359-5.707-46.48-11.914-64.941-25.676-8.7266-10.066-10.738-19.969-14.094-31.043-1.0078-3.0195-3.0195-3.5234-5.0352-3.3555-2.6836 0.50391-5.2031 3.3555-4.1953 6.0391 3.1875 10.57 6.0391 20.473 12.586 30.035-24.836 8.0547-52.691 8.5586-79.875-4.1953 6.7109-9.3984 9.0625-19.297 12.25-29.871 0.67188-2.0117-0.33594-4.5312-2.3477-5.5391-2.5156-1.5117-6.207 0-6.8789 2.8516-3.5234 11.242-4.3633 19.801-12.418 29.535-13.93 14.43-36.078 22.988-56.887 32.387l-4.8672 8.2227c9.0625 11.242 13.09 24.5 16.781 37.422 12.922 7.5508 25.508 18.625 20.809 27.688-2.6836 2.5156-4.1953 1.8477-7.7188 1.6797 1.3438 6.0391-0.33594 10.066-3.5234 13.762-6.7109 2.0117-19.297-4.5312-22.484-11.746-1.3438-3.0195 0.16797-10.57 0.16797-15.941l-5.3711-3.5234c-4.3633-20.809-10.234-38.762-16.109-47.992-8.7266-4.0273-13.09-11.41-11.578-17.789 1.5117-6.207 9.2305-9.5664 13.762-14.262 6.7109-8.3906 13.258-19.465 14.598-25.004-8.5547-32.555-15.434-54.367 4.0312-87.594l-10.738 0.83984c-36.582 62.422-79.371 54.367-131.89 2.3477 33.895 8.2227 53.023 13.426 75.176 3.8594-8.2227-4.6992-18.961-5.2031-29.031-16.445 48.832 11.074 71.484-36.914 118.8-4.3633 28.695-11.41 72.66 8.0547 104.21 20.305 16.949-29.027 28.527-39.098 54.871-46.312-8.3867-4.6992-15.605-5.0352-23.324-7.5508 22.32-9.5664 43.797-8.5586 61.082-9.7344l-16.949-9.3945c30.707-4.8672 48.16-6.043 74.504 14.934 9.2305-6.2109 15.777-8.0547 22.32-9.9023zm-77.695 200.02c-7.8867 20.977-8.0547 31.715-12.754 39.602-2.8516 4.0273-15.102 7.2148-20.305 9.5664-5.875 7.2148-14.094 13.594-19.129 11.074-4.6992-2.1797 2.1797-14.934 5.2031-19.801 2.3477-3.5234 9.9023-4.5312 15.438-6.7109 8.0547-12.082 15.27-26.68 13.762-38.258 6.543 1.5117 12.586 3.0195 17.789 4.5312z"/>
</svg>
