<?xml version="1.0" encoding="UTF-8"?>
<svg width="752pt" height="752pt" version="1.1" viewBox="0 0 752 752" xmlns="http://www.w3.org/2000/svg">
 <defs>
  <clipPath id="a">
   <path d="m139.21 139.21h473.58v473.58h-473.58z"/>
  </clipPath>
 </defs>
 <g clip-path="url(#a)">
  <path d="m549.69 390.85v206.2c0 8.7188-7.0977 15.738-15.812 15.738h-105.22v-105.22c0-28.93-23.684-52.613-52.613-52.613-29.004 0-52.613 23.684-52.613 52.613v105.22h-105.3c-8.7188 0-15.738-7.0195-15.738-15.738v-206.2l173.65-115.79 173.65 115.79zm-403.46-101.68 220.79-147.11c5.168-3.625 12.188-3.9336 17.742-0.23047l85.938 57.316v-34.559c0-8.7188 7.0977-15.738 15.812-15.738h47.367c8.7188 0 15.812 7.0195 15.812 15.738v87.172l55.93 37.336c4.3203 2.8555 7.1758 7.7148 7.1758 13.27v63.102c0 3.0078-0.84766 6.0938-2.6211 8.793-4.8594 7.25-14.656 9.1797-21.91 4.3984l-212.22-141.56-212.14 141.4c-2.5469 1.7734-5.5547 2.7773-8.8711 2.7773-8.7188 0-15.812-7.0977-15.812-15.812v-63.102c0-5.0898 2.4688-10.105 7.0195-13.191z"/>
 </g>
</svg>
