<?xml version="1.0" encoding="UTF-8"?>
<svg width="752pt" height="752pt" version="1.1" viewBox="0 0 752 752" xmlns="http://www.w3.org/2000/svg">
 <path d="m491.59 167.74c-1.9297 0.054688-3.8359 0.71484-5.3867 1.8633l-202.69 150.16c-1.2773 0.94531-2.3086 2.2188-2.9688 3.6602-0.66016 1.4414-0.94922 3.0508-0.82812 4.6328s0.64453 3.1289 1.5156 4.457c0.87109 1.3281 2.082 2.4297 3.4883 3.1758l87.121 46.191-131.37 187.71c-6.4102 11.105 4.1484 18.305 13.73 12.773l255.73-204.28c1.2188-0.97266 2.1914-2.2539 2.8008-3.6836 0.60937-1.4336 0.85547-3.0156 0.71094-4.5664-0.14453-1.5469-0.68359-3.0586-1.5469-4.3555-0.86719-1.2969-2.0586-2.3711-3.4375-3.1055l-83.219-44.16 74.961-136.5c0.79687-1.4531 1.1992-3.1133 1.1602-4.7656-0.042969-1.6523-0.52734-3.293-1.3984-4.7031-0.86719-1.4102-2.1172-2.5859-3.5781-3.3711-1.4609-0.78516-3.1328-1.1836-4.793-1.1328z" fill-rule="evenodd"/>
</svg>
