<?xml version="1.0" encoding="UTF-8"?>
<svg width="752pt" height="752pt" version="1.1" viewBox="0 0 752 752" xmlns="http://www.w3.org/2000/svg">
 <path d="m464.73 340.64c0.27344 0.16797 3.4531 4.6875 7.0977 10.035 17.18 25.293 28.113 41.379 39.133 57.551l4.5469 6.7422-1.1523 16.664c-0.21484 0-7.1523-7.9492-15.371-17.676-14.527-17.219-16.664-19.492-18.227-19.492-0.4375 0-4.0586 1.4258-8.0547 3.1328-4.0352 1.7266-7.5391 2.9844-7.8438 2.793-0.30078-0.16406-0.51953-12.664-0.54688-30.176-0.023437-16.422 0.17188-29.738 0.41797-29.574zm-197.16-3.0703 38.727 28.168-50.73 79.977c2.1094-6.0234 17.871-44.289 22.859-55.395 3.5352-7.918 5.3711-11.508 5.6758-13.371 0.37891-2.1641-0.79297-3.1211-2.168-2.7422-0.4375 0.14062-6.0547 1.5117-12.414 3.3203-7.7617 2.2266-11.598 3.0742-11.676 2.6328zm45-19.289 17.953 8.1094c0.27344 0.24609-2.7422 5.7812-6.7422 12.309-2.5469 4.1406-4.9023 7.7812-6.2734 9.9492-0.98828 1.5625-1.9531 1.4258-2.7148-0.51953-0.51953-1.375-1.1797-3.4766-1.9531-5.6758l-2.3008-6.7148zm60.266-29.547c0.44141-0.46875 23.547 10.961 24.227 11.977 0.41406 0.65625 4.6094 9.7812 9.2969 20.305 22.746 51.035 22 49.277 21.594 51.148l-58.27 83.664c-0.41406 0 2.168-6.4688 16.277-41.105 2.2266-5.4297 4.0352-10.414 4.0352-11.07l-9.5703-8.2773c0-0.10938 2.5273-12.688 5.5625-27.977 5.1289-25.43 5.5078-27.906 4.7734-29.215-0.9375-1.6016-18.176-49.148-17.926-49.449zm-5.4258-13.023c-1.1523 0-2.2734 0.25391-2.5 0.57422-0.1875 0.33203-1.3086 1.1797-2.4883 1.9219-2.168 1.3672-2.4688 1.8359-21.434 32.535-3.2031 5.1797-6.082 9.4258-6.4141 9.4258-0.30078 0-6.1953-2.6562-13.043-5.9141-8.4141-3.9766-13.098-5.8945-14.418-5.8945-2.332 0-2.6875 0.35938-16 16.059-4.9883 5.8945-9.4297 11.012-9.8438 11.371-1.0938 0.87891-8.7383-6.0039-10.297-7.457-4.2773-4-7.918-1.4258-9.7617 1.0469-4.7969 6.5703-80.328 107.51-89.512 119.63-9.0703 11.949-12.609 17.129-14.191 20.797-1.1523 2.6562 0.60547 6.2266 3.9414 6.2266h426.75c7.75-0.40625 7.8086-10.629 4.0586-15.129l-35.355-42.07c-1.5625-1.7852-2.7422-2.2266-16.039-6.0352-7.8945-2.2734-14.984-4.3828-15.758-4.6797-0.98438-0.38281-7.5078-9.457-21.379-29.766-10.961-16.059-21.895-31.977-24.254-35.383-2.3516-3.3945-6.3555-9.2617-8.8438-13.012-4.8008-7.1289-6.2773-8.3633-9.4883-8.0039-1.4258 0.16797-2.8203 2.1406-13.43 18.887-6.5234 10.277-12.035 18.633-12.277 18.582-0.4375-0.13281-2.6055-4.793-18.664-40.371-10.906-24.141-11.844-26.094-12.738-26.801-0.44141-0.35938-8.3945-4.2266-17.652-8.582-12.391-5.875-17.379-7.9609-18.969-7.9609z"/>
</svg>
