<?xml version="1.0" encoding="UTF-8"?>
<svg width="752pt" height="752pt" version="1.1" viewBox="0 0 752 752" xmlns="http://www.w3.org/2000/svg">
 <path d="m376 146.39c-126.83 0-229.61 102.81-229.61 229.61s102.78 229.61 229.61 229.61c126.82 0 229.61-102.81 229.61-229.61 0.003907-126.8-102.79-229.61-229.61-229.61zm0 179.5c27.668 0 50.113 22.43 50.113 50.113 0 27.668-22.445 50.113-50.113 50.113-27.699 0-50.113-22.445-50.113-50.113 0-27.68 22.418-50.113 50.113-50.113zm-194.47 50.113c0-71.984 39.207-134.66 97.312-168.29l36.91 63.961 22.43 38.848c-22.688 13.133-38.117 37.383-38.117 65.484zm194.47 194.46c-35.434 0-68.539-9.6289-97.156-26.191l36.91-63.949 22.43-38.848c11.18 6.457 23.965 10.449 37.816 10.449 13.82 0 26.621-3.9766 37.816-10.449l22.418 38.848 36.926 63.961c-28.605 16.551-61.727 26.18-97.16 26.18zm120.46-194.46h-44.547c0-28.086-15.414-52.336-38.086-65.484l22.418-38.848 36.926-63.949c58.105 33.637 97.285 96.309 97.285 168.28z"/>
</svg>
