<?xml version="1.0" encoding="UTF-8"?>
<svg width="752pt" height="752pt" version="1.1" viewBox="0 0 752 752" xmlns="http://www.w3.org/2000/svg">
 <path d="m603.32 306.39-71.039-97.086-105.14-56.828-90.926 46.883-102.77 42.148-84.77 140.65 30.309 71.984 3.7891 63.461 59.672 35.992 73.879 2.8398 83.348 46.887 139.71-41.676 33.625-68.195-32.676-63.934zm-89.035-86.668 60.621 80.035-74.824-12.785-47.359-39.309-12.312-66.773zm-192.27 128.82 16.102-82.406 15.156 88.086zm94.719-167.65 3.3164 29.363-65.828 3.7891zm131.66 307.35-105.14 8.9961-79.562-128.81 87.141 79.562 64.879-14.68z"/>
</svg>
