<?xml version="1.0" encoding="UTF-8"?>
<svg width="752pt" height="752pt" version="1.1" viewBox="0 0 752 752" xmlns="http://www.w3.org/2000/svg">
 <g>
  <path d="m494.73 460.96h0.47656s-62.711-46.148-62.711-89.074c0-42.938-111.87-42.676-111.87 0 0 42.672-62.781 89.148-62.781 89.148h0.46875c-14.5 14.34-23.488 34.219-23.488 56.211v3.5703c0 43.68 35.43 59.129 79.105 59.129h125.25c43.703 0 79.113-15.449 79.113-59.129v-3.5742c0-22.043-9.0312-41.941-23.562-56.281z"/>
  <path d="m268.34 345.73c9.9375 25.125-2.3789 53.562-27.52 63.508-25.113 9.9375-53.566-2.3867-63.496-27.516l-10.992-27.777c-9.9453-25.137 2.3789-53.578 27.508-63.504 25.133-9.9375 53.582 2.375 63.52 27.516z"/>
  <path d="m484.79 345.73c-9.9375 25.125 2.3789 53.562 27.523 63.508 25.117 9.9375 53.559-2.3867 63.496-27.516l10.977-27.777c9.9492-25.137-2.3633-53.578-27.5-63.504-25.141-9.9375-53.57 2.375-63.508 27.516z"/>
  <path d="m366.81 251.17c0 27.02-21.895 48.934-48.945 48.934-27.02 0-48.93-21.922-48.93-48.934v-29.875c0-27.027 21.91-48.934 48.93-48.934 27.051 0 48.945 21.906 48.945 48.934z"/>
  <path d="m484.19 251.17c0 27.02-21.914 48.934-48.938 48.934-27.035 0-48.93-21.922-48.93-48.934v-29.875c0-27.027 21.902-48.934 48.93-48.934 27.031 0 48.938 21.906 48.938 48.934z"/>
 </g>
</svg>
