<?xml version="1.0" encoding="UTF-8"?>
<svg width="752pt" height="752pt" version="1.1" viewBox="0 0 752 752" xmlns="http://www.w3.org/2000/svg">
 <path d="m376.59 143.95c-53.547 0-104.78 47.234-104.78 113.66v246.26c0 62.09 51.746 104.19 103.89 104.19 52.676 0 104.48-42.098 104.48-104.19v-246.26c0-66.422-51.059-113.66-103.6-113.66zm-10.211 47.359c4.9609-0.078126 9.543 4.3633 9.6211 9.3242 0.078125 4.9609-4.3633 9.543-9.3242 9.6211-8.4102 0.15625-18.223 4.1289-25.453 10.656-7.2305 6.5273-11.629 15.102-11.543 23.828-0.41797 48.223-0.8125 91.57-1.0352 140.74h132.6v118.39c0 51.566-42.906 85.246-85.539 85.246-41.977 0-84.949-33.676-84.949-85.246v-118.39h18.941c0.125-48.102 0.71875-95.539 1.0352-140.59-0.15234-15.195 7.3242-28.617 17.758-38.035 10.438-9.418 24.02-15.277 37.887-15.539zm-56.684 194.17c-0.23828 52.496-0.12109 89.363 0.73828 132.31 2.6758 16.906 13.371 27.406 23.383 32.41 4.457 2.2461 10.48 0.16406 12.727-4.293 2.2461-4.457 0.3125-10.48-4.1445-12.727-6.0156-3.0078-11.332-7.4297-13.172-17.758-0.6875-44.316-0.53906-92.199-0.58984-129.94-6.6758 0.046876-11.27 0-18.941 0z"/>
</svg>
