<?xml version="1.0" encoding="UTF-8"?>
<svg width="752pt" height="752pt" version="1.1" viewBox="0 0 752 752" xmlns="http://www.w3.org/2000/svg">
 <defs>
  <clipPath id="a">
   <path d="m139.21 223h473.58v306h-473.58z"/>
  </clipPath>
 </defs>
 <g clip-path="url(#a)">
  <path d="m577.94 236.42-12.484-12.441h-17.965l-12.473 12.441h-125.05v12.043h-63.289v-12.043h-114.95l-7.3125-11.211h-13.117l-10.012 23.254h-22.578v34.977c0 1.5117-7.7539 7.8984-8.9023 9.6992-2.4648 3.8633-5.3672 11.715-0.71484 14.676 3.1016 1.9062 9.5039 1.1758 13.078 2.1328 2.8164 0.73047 5.3672 1.6836 7.8242 3.1484 0 0 16.742 6.6758 16.742 30.445 0 0 0 24.961-17.055 56.016-8.5078 15.523-50.477 70.574-50.477 113.13 0 17.656 19.473 15.223 19.473 15.223h99.129s13.438-4.2852 13.438-23.121l38.633-106.8s6.5117-21.699 23.453-10.016c9.5391 6.6016 56.438 3.207 71.066 3.207 14.789 0 29.66-12.453 32.359-25.551l3.6484-29.996s2.4688-9.1094 31.645-9.1094h107.12s16.887-0.63672 16.887-20.113v-34.977h16.742v-35.016zm-176.48 138.8h-48.695s-23.414 1.1758-23.414-24.422c0-20.828 15.742-25.875 24.332-25.875-3.8242 37.566 26.23 42.5 18.602 24.215-7.6406-18.328 11.922-26.758 11.922-26.758l20.91 0.20703s17.648 0.85938 17.648 26.078c-0.007812 17.363-8.5078 26.555-21.305 26.555z"/>
 </g>
</svg>
