<?xml version="1.0" encoding="UTF-8"?>
<svg width="752pt" height="752pt" version="1.1" viewBox="0 0 752 752" xmlns="http://www.w3.org/2000/svg">
 <path d="m318.58 256.75c0.003907-5.2383 4.25-9.4883 9.4922-9.4922h95.855c5.2422 0 9.4922 4.25 9.4922 9.4922 0 5.2422-4.25 9.4922-9.4922 9.4922h-95.855c-5.2422-0.007812-9.4883-4.2539-9.4922-9.4922zm82.293-20.879 12.43-73.305v-0.003906c-12.145-3.3672-24.703-5-37.305-4.8477-2.5664 0-5.1016 0.058593-7.5859 0.17578-0.28906 0.33203-0.61719 0.74609-0.86719 1.0625-1.6211 2.6602-4.2812 4.5234-7.3398 5.1367-3.2617 0.085937-6.4258-1.1016-8.8281-3.3047-0.37109-0.27344-0.875-0.64453-1.2539-0.89453-3.8555 0.67188-7.6719 1.5664-11.426 2.6719l12.434 73.305zm-84.613 189.5 41.137 138.55h37.207l41.137-138.55c-39.758 3.2969-79.723 3.2969-119.48 0zm155.93-16.227-49.738 167.8c-1.5078 4.9961-4.5781 9.3789-8.7578 12.5-4.1836 3.125-9.2539 4.8242-14.473 4.8477h-46.434c-5.2188-0.023438-10.289-1.7227-14.473-4.8438-4.1797-3.1211-7.25-7.5039-8.7578-12.5l-49.738-167.81c-1.1016-3.7344-1.1992-7.6992-0.28125-11.484 0.91797-3.7891 2.8203-7.2656 5.5078-10.082l55.93-58.453v-0.003907c2.2148-2.3008 3.4492-5.375 3.4414-8.5664v-42.922h63.176v42.922c-0.007813 3.1914 1.2227 6.2617 3.4336 8.5625l55.934 58.461c2.6914 2.8164 4.5938 6.293 5.5117 10.082 0.91406 3.7852 0.82031 7.75-0.28125 11.484zm-24.312 5.0938-0.003906-0.003906c-1.4453-1.4766-3.5781-2.0547-5.5742-1.5039-18.598 5.1016-114 5.1016-132.59 0-1.9961-0.55078-4.1289 0.027344-5.5781 1.5039-1.4453 1.4805-1.9766 3.625-1.3867 5.6055l44.949 151.4v0.003906c0.71875 2.4141 2.9375 4.0703 5.457 4.0742h45.707c2.5195-0.003906 4.7383-1.6602 5.457-4.0742l44.949-151.4-0.003907-0.003906c0.59375-1.9805 0.0625-4.125-1.3867-5.6055z"/>
</svg>
