<?xml version="1.0" encoding="UTF-8"?>
<svg width="752pt" height="752pt" version="1.1" viewBox="0 0 752 752" xmlns="http://www.w3.org/2000/svg">
 <g>
  <path d="m376 301.65c-46.883 0-89.98 25.574-112.71 66.773-1.8945 3.3164-1.8945 11.367 0 14.68 22.73 41.207 65.828 67.254 112.71 67.254s89.98-25.574 112.71-66.773c1.8945-3.3164 1.8945-11.367 0-14.68-22.73-41.207-65.824-67.254-112.71-67.254zm0 142.07c-37.414 0-67.723-30.309-67.723-67.723 0.003906-37.41 30.312-67.719 67.723-67.719 37.414 0 67.723 30.309 67.723 67.723 0 37.41-30.309 67.719-67.723 67.719z"/>
  <path d="m547.91 389.73v-170.96c-104.66 13.734-171.91-53.043-171.91-53.043s-67.25 66.773-171.91 53.043v170.96s-10.418 122.18 171.91 196.54c182.33-73.875 171.91-196.54 171.91-196.54zm-37.887 5.2109c-26.992 48.777-78.141 79.562-134.02 79.562s-107.03-30.309-134.02-79.562c-5.6836-10.418-5.6836-27.469 0-37.887 26.996-48.777 78.141-79.562 134.02-79.562s107.03 30.309 134.02 79.562c5.6836 10.418 5.6836 27.469 0 37.887z"/>
  <path d="m413.89 377.89c0 20.926-16.961 37.887-37.887 37.887-20.922 0-37.887-16.961-37.887-37.887 0-20.922 16.965-37.887 37.887-37.887 20.926 0 37.887 16.965 37.887 37.887"/>
 </g>
</svg>
