<?xml version="1.0" encoding="UTF-8"?>
<svg width="752pt" height="752pt" version="1.1" viewBox="0 0 752 752" xmlns="http://www.w3.org/2000/svg">
 <path d="m492.03 144.42h-231.11c-63.934 0-116.03 52.094-116.03 116.03v231.11c0 63.934 52.094 116.03 116.03 116.03h231.11c63.93-0.47656 116.02-52.57 116.02-116.03v-231.11c0-63.934-52.094-116.03-116.03-116.03zm-115.08 356.13c-9.9453 0-17.996-8.0508-17.996-17.996 0-9.9453 8.0508-17.996 17.996-17.996 9.9453 0 17.996 8.0508 17.996 17.996 0 9.9453-8.0508 17.996-17.996 17.996zm12.785-96.137v26.52c0 7.1055-5.6836 12.785-12.785 12.785-7.1055 0-12.785-5.6836-12.785-12.785v-38.359c0-7.1055 5.6836-12.785 12.785-12.785 29.363 0 53.043-23.68 53.043-53.043s-23.68-53.043-53.043-53.043-53.043 23.68-53.043 53.043c0 7.1055-5.6836 12.785-12.785 12.785-7.1055 0-12.785-5.6836-12.785-12.785 0-43.098 35.047-78.613 78.613-78.613 43.098 0 78.613 35.047 78.613 78.613 0 38.832-28.414 71.508-65.828 77.668z"/>
</svg>
