<?xml version="1.0" encoding="UTF-8"?>
<svg width="752pt" height="752pt" version="1.1" viewBox="0 0 752 752" xmlns="http://www.w3.org/2000/svg">
 <path d="m527.87 144.14c-2.1953 2.1094-3.4492 5.0156-3.4766 8.0625-0.03125 3.0469 1.1641 5.9766 3.3203 8.1328l15.246 15.246-47.715 47.711-15.719-15.719c-1.7852-1.7891-4.2109-2.793-6.7383-2.793s-4.9531 1.0039-6.7383 2.793l-48.996 48.992-6.0938-6.0938h0.003907c-3.7227-3.7227-9.7578-3.7227-13.48 0l-172.38 172.38c-2.9297 2.8711-3.6602 7.3086-1.8047 10.965 2.1602 4.1133 2.9453 8.8125 2.2461 13.402-0.69922 4.5938-2.8477 8.8398-6.1328 12.125l-55.805 55.805c-4.0859 4.082-6.3789 9.6211-6.3789 15.398 0 5.7773 2.293 11.316 6.3789 15.398l58.605 58.605v0.003906c3.6602 3.6602 8.5039 5.8945 13.664 6.3086 5.1602 0.41016 10.297-1.0273 14.492-4.0586 4.1953-3.0312 7.1719-7.457 8.3984-12.484l23.363-95.688c0.94531-3.875 2.9336-7.4141 5.7539-10.234 1.9141-1.9141 4.582-2.8672 7.2734-2.6055 2.6875 0.26563 5.1211 1.7188 6.625 3.9648l62.047 92.629c1.8086 2.6953 4.7266 4.4375 7.957 4.7539 3.2305 0.31641 6.4297-0.83203 8.7266-3.125l26.398-26.398h-0.003906c3.6641-3.6602 4.2305-9.4023 1.3477-13.703l-44.668-66.68 6.9414-6.9414c8.4062-8.4102 13.133-19.816 13.133-31.707s-4.7266-23.293-13.133-31.703l-0.5625-0.5625 16.438-16.438c3.4141-3.3945 8.8828-3.5273 12.457-0.30469 26.5 23.559 60.672 36.656 96.129 36.848s69.77-12.539 96.523-35.809c1.9883-1.7383 3.168-4.2227 3.2578-6.8633 0.089844-2.6367-0.91797-5.1953-2.7852-7.0664l-31.551-31.551v0.003907c-3.4141-3.4492-8.8828-3.7578-12.668-0.72266-14.484 11.742-32.52 18.234-51.164 18.422-18.648 0.1875-36.809-5.9453-51.527-17.395-2.0234-1.5977-3.2656-3.9883-3.4102-6.5625-0.14844-2.5742 0.8125-5.0859 2.6406-6.9062l17.34-17.34c3.7227-3.7227 3.7227-9.7539 0-13.477l-6.0938-6.0938 112.75-112.75c3.7227-3.7227 3.7227-9.7578 0-13.48l-24.277-24.277c-4.3828-4.4883-11.543-4.6758-16.152-0.42188zm-166.96 272.37c5.8555 5.8555 9.1445 13.797 9.1445 22.078s-3.2891 16.227-9.1445 22.082l-5.0391 5.0391-14.035-20.949c-2.4023-3.5859-1.9336-8.3711 1.1172-11.422l17.395-17.395z"/>
</svg>
