<?xml version="1.0" encoding="UTF-8"?>
<svg width="752pt" height="752pt" version="1.1" viewBox="0 0 752 752" xmlns="http://www.w3.org/2000/svg">
 <g>
  <path d="m593.42 158.59c-4.5-4.5469-11.066-6.375-17.27-4.8086l-43.336 10.754c-3.2109 0.79688-6.1445 2.4531-8.4883 4.793l-31.305 31.305c5.4805 5.4805 5.4844 14.363 0.007812 19.848l-73.605 73.602 38.5 38.5 73.602-73.602c5.4844-5.4805 14.367-5.4766 19.848 0.003907l31.305-31.305c2.3398-2.3398 3.9961-5.2773 4.793-8.4883l10.754-43.336c1.5703-6.2031-0.25781-12.77-4.8047-17.266z"/>
  <path d="m422.07 388.28 29.746-29.746c1.6953-1.6992 2.6523-4.0039 2.6484-6.4062 0-2.4062-0.95703-4.707-2.6562-6.4062l-45.531-45.531c-3.5352-3.5391-9.2734-3.543-12.812-0.007812l-155.5 155.5v0.003906c-1.6328 1.668-1.8867 4.25-0.60938 6.2031 2.6914 4.3203 3.3789 9.5938 1.8828 14.461-1.4922 4.8633-5.0195 8.8438-9.6719 10.91l-54.535 24.156c-1.2734 0.57031-2.4336 1.3672-3.418 2.3555l-15.738 15.738c-1.6992 1.7031-2.6523 4.0078-2.6523 6.4102 0 2.4023 0.95703 4.707 2.6562 6.4062l53.797 53.793c1.6953 1.6992 4 2.6562 6.4023 2.6562 2.4062 0.003906 4.7109-0.94922 6.4102-2.6484l15.738-15.738c0.98828-0.98828 1.7852-2.1484 2.3555-3.4219l24.156-54.531c2.0664-4.6523 6.0469-8.1836 10.91-9.6758 4.8672-1.4922 10.141-0.80469 14.461 1.8828 1.957 1.2812 4.5352 1.0273 6.207-0.60938l32.742-32.742 26.754 26.754c4.582 4.582 11.266 6.375 17.527 4.6953 6.2656-1.6797 11.156-6.5703 12.832-12.832 1.6797-6.2617-0.10938-12.945-4.6953-17.531l-26.754-26.75 41.68-41.68 39.586 39.586c4.5859 4.5742 11.266 6.3555 17.52 4.6758 6.2578-1.6797 11.145-6.5664 12.824-12.824 1.6797-6.2539-0.10547-12.934-4.6797-17.52z"/>
 </g>
</svg>
