<?xml version="1.0" encoding="UTF-8"?>
<svg width="752pt" height="752pt" version="1.1" viewBox="0 0 752 752" xmlns="http://www.w3.org/2000/svg">
 <g>
  <path d="m395.39 317.47-1.332 1.332h32.266c4.0859 0 7.3984 3.3125 7.3984 7.4023 0 4.0859-3.3125 7.3984-7.3984 7.3984h-46.988l-36.629 36.406c-1.4258 1.3906-2.2266 3.3008-2.2266 5.2891 0 1.9922 0.80078 3.8984 2.2266 5.293 1.3945 1.4453 3.3164 2.2656 5.3281 2.2656 2.0078 0 3.9336-0.82031 5.3281-2.2656l17.609-17.609v-0.003907c1.3984-1.3828 3.2891-2.1562 5.2539-2.1445h41.957c1.9688-0.011719 3.8555 0.76172 5.2539 2.1445l48.766 48.395 31.672-31.672-85.469-85.094z"/>
  <path d="m415.14 375.56h-35.812l-15.539 15.242c-4.2109 4.0703-9.8359 6.3438-15.688 6.3438-5.8555 0-11.48-2.2734-15.688-6.3438-4.2266-4.1719-6.6055-9.8594-6.6055-15.797s2.3789-11.629 6.6055-15.801l38.184-38.109 0.66406-0.8125 3.1094-3.1094-17.094-2.1445c-1.6289-0.21875-3.1406-0.97266-4.293-2.1445l-19.09-18.277-85.172 85.023 32.707 32.707v-0.003907c4.9531-1.75 10.469-0.57812 14.281 3.0352l14.801 14.801c1.5547 1.5703 2.6953 3.5039 3.3281 5.6211 2.0586 0.59766 3.9414 1.6875 5.4766 3.1836l14.801 14.801h-0.003906c1.5156 1.5586 2.6328 3.4648 3.2578 5.5469 2.0586 0.63281 3.9375 1.75 5.4766 3.2578l14.801 14.801h-0.003906c1.543 1.5508 2.6875 3.457 3.332 5.5469 2.0586 0.63281 3.9375 1.75 5.4766 3.2578l14.801 14.801-0.003906-0.003906c3.4336 3.4844 4.7305 8.543 3.4062 13.246 3.4688 1.8164 7.4258 2.4805 11.297 1.8945 3.8711-0.58594 7.457-2.3867 10.234-5.1484l59.199-59.199c3.4375-3.4766 5.3672-8.168 5.3672-13.059s-1.9297-9.5859-5.3672-13.062z"/>
  <path d="m286.17 426.69-13.465 13.469 13.465 13.395 6.7344-6.6602 6.6602-6.7344z"/>
  <path d="m587.56 328.35-101.67-101.67-57.125 57.125 101.38 101.38z"/>
  <path d="m296.6 464.05 13.441-13.453 13.453 13.441-13.441 13.453z"/>
  <path d="m344.5 511.89 13.449-13.445 13.445 13.449-13.449 13.445z"/>
  <path d="m164.5 328.36 101.66-101.66 57.191 57.191-101.66 101.66z"/>
  <path d="m347.44 487.96-13.465-13.465-0.66797 0.66406-12.801 12.801 13.469 13.469z"/>
 </g>
</svg>
