<?xml version="1.0" encoding="UTF-8"?>
<svg width="752pt" height="752pt" version="1.1" viewBox="0 0 752 752" xmlns="http://www.w3.org/2000/svg">
 <path d="m536.07 247.57c-11.152 30.074-16.922 61.883-17.047 93.957l-13.449 4.9258c-0.1875 0-2.2734 0.75781-5.8711 1.8945h-0.003906c-37.094 11.109-75.516 17.16-114.23 17.996v-166.32c53.988 33.34 141.13 33.906 142.07 33.906 3.3047 0.054688 6.3672 1.7617 8.1445 4.5469 1.6367 2.7773 1.7773 6.1875 0.37891 9.0938zm-36.75 120.67c-37.07 10.5-75.328 16.23-113.85 17.051v168.03c27.848-10.23 132.6-57.02 132.6-177.31 0-4.7344 0-9.4727 0.1875-14.02l-6.25 2.2734c-0.56641 0.1875-5.1133 1.7031-12.691 3.9766zm-259.33-3.9766-6.25-2.2734c0.1875 4.5469 0.1875 9.2812 0.1875 14.02 0 120.29 104.76 167.08 132.6 177.31l0.003906-168.03c-38.523-0.82031-76.781-6.5508-113.85-17.051-7.5742-2.2734-12.121-3.7891-12.691-3.9766zm-23.68-125.79c-1.6328 2.7773-1.7773 6.1875-0.37891 9.0938 11.254 30.047 17.027 61.871 17.051 93.957l13.449 4.9258c0.1875 0 2.2734 0.75781 5.8711 1.8945 37.094 11.109 75.516 17.16 114.23 17.996v-166.32c-53.988 33.34-141.13 33.906-142.07 33.906-3.3086 0.054688-6.3672 1.7617-8.1484 4.5469z"/>
</svg>
