<?xml version="1.0" encoding="UTF-8"?>
<svg width="752pt" height="752pt" version="1.1" viewBox="0 0 752 752" xmlns="http://www.w3.org/2000/svg">
 <defs>
  <clipPath id="b">
   <path d="m538 331h74.793v45h-74.793z"/>
  </clipPath>
  <clipPath id="a">
   <path d="m139.21 272h325.79v164h-325.79z"/>
  </clipPath>
 </defs>
 <g clip-path="url(#b)">
  <path d="m605.39 331.6h-51.797c-1.9609 0-3.8477 0.77734-5.2305 2.168l-7.3984 7.3984c-1.3945 1.3867-2.1719 3.2734-2.1719 5.2344v14.801c0 1.9609 0.77734 3.8477 2.168 5.2305l7.3984 7.3984c1.3867 1.3906 3.2734 2.168 5.2344 2.168h51.797c4.0859 0 7.3984-3.3164 7.3984-7.3984v-29.598c0.003907-4.0859-3.3125-7.4023-7.3984-7.4023z"/>
 </g>
 <path d="m509.2 339c0-4.0859-3.3164-7.3984-7.3984-7.3984-4.0859 0-7.3984 3.3164-7.3984 7.3984v7.3984h-14.801v14.801h44.398v-14.801h-14.801z"/>
 <g clip-path="url(#a)">
  <path d="m457.4 339h-88.797v-22.199h14.801v-44.398h-88.797v44.398h14.801v22.199h-74c-4.0117 0-7.2969 3.3008-7.3984 7.3125-0.089843 3.418-1.4453 7.4844-7.3984 7.4844h-74c-4.0859 0-7.3984 3.3164-7.3984 7.3984v66.598c0 2.3398 1.1016 4.543 2.9805 5.9336 1.2969 0.96484 2.8516 1.4688 4.418 1.4688 0.71094 0 1.4297-0.10547 2.125-0.3125l73.996-22.199c2.4805-0.74609 4.3945-2.7617 5.0469-5.2617 0.25391-0.98047 6.5195-24.023 29.828-24.023h184.99c1.9609 0 3.8477-0.77734 5.2305-2.168l14.801-14.801c1.3906-1.3828 2.168-3.2695 2.168-5.2305v-14.801c0-4.0859-3.3125-7.3984-7.3984-7.3984zm-103.6 0h-29.598v-22.199h29.598z"/>
 </g>
 <path d="m346.4 413h-14.801v-14.801h-66.598s14.801 7.3984 7.3984 22.199c-7.3984 14.801-18.492 30.91-35.621 54.898-1.6055 2.2578-1.8281 5.2227-0.55469 7.6875 1.2734 2.4648 3.8047 4.0117 6.582 4.0117h51.797c2.5977 0 5.0078-1.3633 6.3398-3.5898 0.85938-1.4297 19.691-32.93 28.438-55.609l17.02 0.003906v22.199c0 4.0859 3.3164 7.3984 7.3984 7.3984h29.598c4.0859 0 7.3984-3.3164 7.3984-7.3984v-51.797h-44.398z"/>
 <path d="m250.21 324.2h20.453c1.1484 0 2.2852-0.26562 3.3086-0.77734l5.8359-2.9219v-51.797l-5.8398-2.9219c-1.0273-0.51172-2.1602-0.77734-3.3047-0.77734h-20.453c-4.0859 0-7.3984 3.3164-7.3984 7.3984v44.398c0 4.082 3.3125 7.3984 7.3984 7.3984z"/>
 <path d="m407.35 324.2h20.453c4.0859 0 7.3984-3.3164 7.3984-7.3984v-44.398c0-4.0859-3.3164-7.3984-7.3984-7.3984h-20.453c-1.1484 0-2.2852 0.26563-3.3086 0.77734l-5.8398 2.9219v51.797l5.8398 2.9219c1.0273 0.51172 2.1602 0.77734 3.3086 0.77734z"/>
</svg>
