<?xml version="1.0" encoding="UTF-8"?>
<svg width="752pt" height="752pt" version="1.1" viewBox="0 0 752 752" xmlns="http://www.w3.org/2000/svg">
 <path d="m498.77 192.7 87.801-33.961-178.38 178.31-22.098-23.668zm-178.64 191.42 21.219 19.781-72.207 72.203-18.051-18.051zm-113.43 207.7c-11.953 11.953-31.32 11.961-43.281 0-11.953-11.953-11.961-31.32 0-43.281l55.176-55.184 43.285 43.281zm82.113-44.027c-15.93-15.945-84.906-84.961-80.598-80.594l18.117-18.117 80.598 80.598zm6.332-45.684-18.117-18.117 72.477-72.477 21.34 19.926zm-105.67-255.27-33.941-87.703 317.38 317.37-18.082 18.082c-24.039-22.438-76.043-71.047-265.36-247.75zm399.12 292.14c11.93 11.934 11.93 31.348 0 43.285-11.953 11.953-31.32 11.961-43.281 0l-55.188-55.188 43.281-43.277zm-124.63-1.5156-18.117-18.117c0.6875-0.6875 85.984-85.977 80.598-80.598l18.117 18.117c0.68359-0.68359-13.887 13.82-80.598 80.598zm16.832-68.84-317.41-317.4 87.75 33.961c262.71 281.38-13.805-14.707 247.75 265.36zm79.703-214.27-122.59 114.52c-0.64844-0.69141-23.562-25.223-22.109-23.664l178.66-178.59z"/>
</svg>
