<?xml version="1.0" encoding="UTF-8"?>
<svg width="752pt" height="752pt" version="1.1" viewBox="0 0 752 752" xmlns="http://www.w3.org/2000/svg">
 <g>
  <path d="m538.1 333.09c-1.4688-0.03125-2.8203 0.80859-3.4492 2.1406-0.68359 1.2422-0.57031 2.7656 0.28906 3.8906 13.254 17.277 30.125 31.441 49.438 41.508v-3.6016c0.050782-15.699-4.7227-31.039-13.676-43.938z"/>
  <path d="m235.06 432.25c-5.582-0.007812-10.941 2.207-14.895 6.1523-3.9492 3.9453-6.1719 9.3008-6.1758 14.883 0 5.5859 2.2188 10.941 6.168 14.891 3.9453 3.9492 9.3047 6.168 14.887 6.1641 5.5859 0 10.941-2.2227 14.887-6.1758 3.9453-3.9492 6.1602-9.3086 6.1523-14.895-0.007813-5.5703-2.2266-10.914-6.168-14.855-3.9414-3.9375-9.2812-6.1562-14.855-6.1641z"/>
  <path d="m291.75 432.25c-5.582-0.007812-10.941 2.2031-14.895 6.1484-3.9531 3.9453-6.1758 9.3008-6.1797 14.887 0 5.582 2.2148 10.941 6.1641 14.891 3.9492 3.9492 9.3047 6.168 14.891 6.1641 5.582 0 10.938-2.2227 14.887-6.1758 3.9453-3.9492 6.1562-9.3086 6.1523-14.895-0.011719-5.5703-2.2305-10.91-6.168-14.848-3.9414-3.9414-9.2773-6.1602-14.852-6.1719z"/>
  <path d="m530.17 432.25c-5.5742-0.023438-10.918 2.1953-14.84 6.1562-3.9648 3.9219-6.2031 9.2617-6.2266 14.84v0.046875c0.007812 5.582 2.2266 10.93 6.1758 14.871 3.9492 3.9414 9.3008 6.1562 14.879 6.1523 5.582-0.003906 10.93-2.2188 14.875-6.1641 3.9453-3.9453 6.1602-9.2969 6.1641-14.875 0-5.582-2.2148-10.934-6.1562-14.879-3.9453-3.9492-9.293-6.168-14.871-6.1719z"/>
  <path d="m523.02 347.59c-2.6211-3.6992-3.7891-8.2383-3.2773-12.746 0.51562-4.5039 2.6719-8.6641 6.0586-11.68 3.3867-3.0195 7.7656-4.6797 12.301-4.6719h19.66c-14.141-12.492-32.367-19.363-51.238-19.316h-30.598v146.81h19.371v0.003906c2.2578-10.762 9.3555-19.879 19.23-24.707 9.8789-4.8281 21.434-4.8281 31.309 0 9.8789 4.8281 16.977 13.945 19.234 24.707h6.7148c6.9609-0.007813 12.598-5.6562 12.594-12.617v-36.297c-16.887-8.4688-43.84-24.816-61.359-49.484z"/>
  <path d="m167.62 445.97h32.555c1.8672-8.9648 7.1211-16.863 14.668-22.055 7.5469-5.1875 16.801-7.2695 25.84-5.8086 9.043 1.4609 17.172 6.3555 22.695 13.656 5.5352-7.3008 13.668-12.191 22.711-13.652 9.043-1.4609 18.305 0.62109 25.855 5.8086s12.812 13.086 14.691 22.051h134.68v-168.3h-293.7z"/>
 </g>
</svg>
