<?xml version="1.0" encoding="UTF-8"?>
<svg width="752pt" height="752pt" version="1.1" viewBox="0 0 752 752" xmlns="http://www.w3.org/2000/svg">
 <defs>
  <clipPath id="a">
   <path d="m139.21 189h473.58v374h-473.58z"/>
  </clipPath>
 </defs>
 <g clip-path="url(#a)">
  <path d="m549.16 350.35s19.734-4.5391 25.453 34.629c5.7227 39.172 8.582 62.062 38.184 75.48 0 0-22.891-11.148-13.91-92.445 8.9766-81.297-55.941-45.484-55.941-45.484h-0.003906c-18.734-5.1758-37.934-8.4805-57.32-9.8672-26.539-1.0859-39.465 13.223-70.641 9.8672h-0.003906c-15.887-0.67188-30.754-8.0156-40.945-20.227 0.88672 0 4.1445-0.98828 16.379-14.406-9.0859-0.53906-17.684-4.2773-24.27-10.555 0 0 8.1875 1.4805 16.969-10.457 0 0-59.199-10.359-64.031-20.719 0 0 19.238-7.8945 25.258 0 0 0-25.75-29.598-59.199-24.863v-0.003906c-19.883 2.6484-39.996-2.8672-55.746-15.293l6.7109 22.891c-4.4609 0.97266-8.7734 2.5312-12.824 4.6367l-81.598-44.004c-0.73047-0.38281-1.6328-0.17578-2.125 0.48828-0.49609 0.66406-0.42969 1.5898 0.15234 2.1758l64.625 63.047c-0.33594 0.93359-0.59766 1.8906-0.78906 2.8594-5.625 24.469 2.1719 41.141 17.465 60.184 0 0 3.5508 11.445 7.1055 23.68 3.5508 12.234 10.457 20.719 21.805 18.648 11.348-2.0703 19.734-22.891 17.465-53.574 0 0 19.734 60.578 7.1055 78.238-12.629 17.66-40.648 1.9727-47.457 25.059-6.8086 23.086 3.8477 22.891-2.5664 48.246-6.4141 25.355-2.3672 29.598 1.6758 39.465 4.0469 9.8672 38.578-12.234 23.383-70.742l-0.003906 0.003907c17.219 3.6445 34.797 5.3008 52.391 4.9336 0 0 20.816 24.766 7.9922 71.234-12.828 46.473-38.379 16.578-42.426 57.227 0 0 34.926 6.1172 46.371-3.3555s4.8359-18.055 4.8359-18.055 12.43 0 19.734-50.613c0 0 11.938-16.969 7.5-50.812h-0.003906c17.176-1.4102 33.922-6.0977 49.332-13.812 14.934-7.4336 31.473-11.059 48.145-10.559 0 0 5.625 44.891 10.559 53.18 4.9336 8.2891-0.98828 43.805-41.043 82.68 0 0 9.2734 8.3867 30.684 1.875 21.41-6.5117 56.039-78.93 42.328-129.35 0 0 36.504 42.129 59.199 40.453 22.691-1.6758-7.2031 69.062-30.883 85.246 0 0 3.5508 9.8672 30.488 1.875l-0.003906-0.003906c3.2812-10.52 8.5742-20.305 15.59-28.809 8.9766-8.2891 21.312-45.188 17.168-59.789-4.1445-14.602-3.6523-21.805-22-36.309-18.352-14.504 4.6367-54.758-5.3281-70.051-9.9688-15.293-0.98828-4.1445-0.98828-4.1445z"/>
 </g>
</svg>
